<?xml version="1.0" encoding="utf-8"?>
<?xml-stylesheet type="text/xsl" href="rss1.xsl"?>
<rss version="2.0" xmlns:atom="http://www.w3.org/2005/Atom" xmlns:content="http://purl.org/rss/1.0/modules/content/" xmlns:dc="http://purl.org/dc/elements/1.1/" xmlns:media="http://search.yahoo.com/mrss/">
<channel>
 <title>Getty</title>
 <link>http://www.gettyimg.com/</link>
 <atom:link href="http://www.gettyimg.com/" rel="self" type="application/rss+xml" />

 
                <item>
                <title><![CDATA[【Requests】[REQ AUD] - Michael Jackson - Thriller 25 (Super Deluxe Edition) | Qobuz Hi-Res 24bit / 44.1kHz]]></title>
                <link><![CDATA[https://sharemania.us/threads/michael-jackson-thriller-25-super-deluxe-edition-qobuz-hi-res-24bit-44-1khz.241854/]]></link>
                <description><![CDATA[<article>
<blockquote class="messageText SelectQuoteContainer ugc baseHtml">
Does anyone could upload this album from Qobuz please ?<br>
<a href="https://www.qobuz.com/fr-fr/album/thriller-25-super-deluxe-edition-michael-jackson/b0cksdkfprljb" target="_blank" class="externalLink" rel="nofollow">https://www.qobuz.com/fr-fr/album/thriller-25-super-deluxe-edition-michael-jackson/b0cksdkfprljb</a><br>
<br>
<img src="https://static.qobuz.com/images/covers/jb/rl/b0cksdkfprljb_600.jpg" class="bbCodeImage LbImage" alt="[​IMG]" data-url="https://static.qobuz.com/images/covers/jb/rl/b0cksdkfprljb_600.jpg" style="">
<div class="messageTextEndMarker">&nbsp;</div>
</blockquote>
</article>]]></description>
                <author><![CDATA[yomyfred]]></author>
                </item>

                
                <item>
                <title><![CDATA[【Instrumentals / Karaoke (lossless)】Lady Gaga Brown Eyes stems]]></title>
                <link><![CDATA[https://sharemania.us/threads/lady-gaga-brown-eyes-stems.241855/]]></link>
                <description><![CDATA[<article>
<blockquote class="messageText SelectQuoteContainer ugc baseHtml">
fuck it<br>
<br>
<div class="bbCodeBlock bbCodeVfcHH HiddenContent">
<div class="attribution type">Hidden Content:</div>
<blockquote>You must reply before you can see the hidden data contained here.</blockquote>
</div>
<div class="messageTextEndMarker">&nbsp;</div>
</blockquote>
</article>]]></description>
                <author><![CDATA[sodiumpotassium]]></author>
                </item>

                
                <item>
                <title><![CDATA[【TIDAL】WEB-RiP - 3 Doors Down - Kryptonite [TIDAL HD Music Video]]]></title>
                <link><![CDATA[https://sharemania.us/threads/3-doors-down-kryptonite-tidal-hd-music-video.241853/]]></link>
                <description><![CDATA[<article>
<blockquote class="messageText SelectQuoteContainer ugc baseHtml">
<span style="font-size: 22px"><b>3 Doors Down - Kryptonite [TIDAL HD Music Video]</b></span><br>
<br>
<img src="https://imgur.com/B7bYSL4.jpg" class="bbCodeImage LbImage" alt="[​IMG]" data-url="https://imgur.com/B7bYSL4.jpg" style=""><br>
<br>
<div class="bbCodeBlock bbCodeCode">
<div class="type">Code:</div>
<pre>General
Format                         : MPEG-4
Format profile                 : Base Media
Codec ID                       : isom (isom/iso2/avc1/mp41)
File size                      : 149 MiB
Duration                       : 3 min 54 s
Overall bit rate mode          : Variable
Overall bit rate               : 5 331 kb/s
Writing application            : Lavf58.76.100

Video
ID                             : 1
Format                         : AVC
Format/Info                    : Advanced Video Codec
Format profile                 : High@L4
Format settings                : CABAC / 4 Ref Frames
Format settings, CABAC         : Yes
Format settings, Reference fra : 4 frames
Codec ID                       : avc1
Codec ID/Info                  : Advanced Video Coding
Duration                       : 3 min 54 s
Source duration                : 3 min 54 s
Bit rate                       : 5 006 kb/s
Width                          : 1 920 pixels
Height                         : 1 080 pixels
Display aspect ratio           : 16:9
Frame rate mode                : Variable
Frame rate                     : 23.839 FPS
Minimum frame rate             : 11.377 FPS
Maximum frame rate             : 23.981 FPS
Color space                    : YUV
Chroma subsampling             : 4:2:0
Bit depth                      : 8 bits
Scan type                      : Progressive
Bits/(Pixel*Frame)             : 0.101
Stream size                    : 140 MiB (94%)
Source stream size             : 140 MiB (94%)
Writing library                : x264 core 164
Encoding settings              : cabac=1 / ref=4 / deblock=1:0:0 / analyse=0x3:0x113 / me=hex / subme=8 / psy=1 / psy_rd=1.00:0.00 / mixed_ref=1 / me_range=16 / chroma_me=1 / trellis=2 / 8x8dct=1 / cqm=0 / deadzone=21,11 / fast_pskip=1 / chroma_qp_offset=-2 / threads=24 / lookahead_threads=4 / sliced_threads=0 / nr=0 / decimate=1 / interlaced=0 / bluray_compat=0 / constrained_intra=0 / bframes=3 / b_pyramid=2 / b_adapt=1 / b_bias=0 / direct=3 / weightb=1 / open_gop=0 / weightp=2 / keyint=72 / keyint_min=37 / scenecut=0 / intra_refresh=0 / rc_lookahead=50 / rc=crf / mbtree=1 / crf=22.0 / qcomp=0.60 / qpmin=0 / qpmax=69 / qpstep=4 / vbv_maxrate=5500 / vbv_bufsize=11000 / crf_max=0.0 / nal_hrd=none / filler=0 / ip_ratio=1.40 / aq=1:1.00
mdhd_Duration                  : 234994
Codec configuration box        : avcC

Audio
ID                             : 2
Format                         : AAC LC
Format/Info                    : Advanced Audio Codec Low Complexity
Codec ID                       : mp4a-40-2
Duration                       : 3 min 54 s
Bit rate mode                  : Variable
Bit rate                       : 318 kb/s
Maximum bit rate               : 322 kb/s
Channel(s)                     : 2 channels
Channel layout                 : L R
Sampling rate                  : 44.1 kHz
Frame rate                     : 43.066 FPS (1024 SPF)
Compression mode               : Lossy
Stream size                    : 8.91 MiB (6%)
Default                        : Yes
Alternate group                : 1
</pre>
</div>
<div class="bbCodeBlock bbCodeVfcHH HiddenContent">
<div class="attribution type">Hidden Content:</div>
<blockquote>You must reply before you can see the hidden data contained here.</blockquote>
</div><b>Password: sharemania</b>
<div class="messageTextEndMarker">&nbsp;</div>
</blockquote>
</article>]]></description>
                <author><![CDATA[abby0511]]></author>
                </item>

                </channel></rss>